<svg width="1439" height="1327" viewBox="0 0 1439 1327" fill="none" xmlns="http://www.w3.org/2000/svg">
<g clip-path="url(#clip0_141_57)">
<path d="M2.00094 -5.14896e-05L-0.110062 1324.2L1436.1 1326.49L1438.21 2.28951L2.00094 -5.14896e-05Z" fill="#0074A8"/>
<path d="M258.125 0.408311L257.949 110.758L157.414 110.598L157.238 220.947L128.514 220.902L128.338 331.251L228.873 331.411L228.697 441.761L341.2 441.94L341.024 552.29L412.834 552.405L412.658 662.754L194.834 662.407L194.658 772.757L414.876 773.108L414.7 883.457L354.858 883.362L354.682 993.712L299.628 993.624L299.452 1103.97L459.828 1104.23L459.652 1214.58L203.529 1214.17L203.353 1324.52L179.416 1324.48L-2.50369 1324.19L-2.32777 1213.84L-2.15186 1103.49L-1.97594 993.143L-1.80003 882.793L-1.62411 772.444L-1.44819 662.094L-1.27228 551.744L-1.09636 441.395L-0.920442 331.045L-0.744525 220.695L-0.568609 110.346L-0.392692 -0.003811L258.125 0.408311Z" fill="#DEC918"/>
</g>
<defs>
<clipPath id="clip0_141_57">
<rect width="1324.2" height="1436.21" fill="white" transform="translate(1438.21 2.28955) rotate(90.0913)"/>
</clipPath>
</defs>
</svg>
