<svg width="188" height="231" viewBox="0 0 188 231" fill="none" xmlns="http://www.w3.org/2000/svg">
    <path
        d="M0 1.84505V157.936L4.0549 173.804L11.0588 186.903L21.3804 200.372L36.1255 212.734L50.6863 221.037L69.4863 227.679L85.3373 231H108.561L120.541 227.679L131.231 223.804L142.475 218.638L152.612 212.734L162.196 204.431L169.384 196.313L176.941 186.903L182.102 175.833L186.341 164.578L188 157.014V1.84505L179.706 6.27316L173.255 12.1773L162.196 16.6054L150.769 20.849H138.051L125.333 18.635L112.616 12.1773L100.82 4.24361L95.4745 0L88.4706 4.24361L80.9137 10.3323L73.1726 14.5759L66.7216 17.528L61.3765 18.635L55.4784 19.9265L48.8431 20.849L39.2588 19.9265L31.5176 18.635L23.7765 15.6829L13.0863 10.3323L6.45098 5.53514L0 1.84505Z"
        fill="#1F1839" />
    <path
        d="M165.145 115.315C165.145 162.902 133.292 201.479 94 201.479C54.7076 201.479 22.8549 162.902 22.8549 115.315C22.8549 67.7286 54.7076 29.1518 94 29.1518C133.292 29.1518 165.145 67.7286 165.145 115.315Z"
        fill="#DEC918" />
    <path
        d="M143.027 115.315C143.027 148.229 120.995 174.911 93.8157 174.911C66.6368 174.911 44.6039 148.229 44.6039 115.315C44.6039 82.4021 66.6368 55.7204 93.8157 55.7204C120.995 55.7204 143.027 82.4021 143.027 115.315Z"
        fill="#76C5DC" />
    <path
        d="M97.6589 65.1302L85.8902 73.4329L85.1529 74.7244L85.8902 76.754L91.6039 83.9497H100.451L106.349 76.016L97.6589 65.1302Z"
        fill="#DE1E12" />
    <path
        d="M99.5294 96.3115L89.2078 102.216L89.0235 124.356H73.3569L75.2 114.577L76.6745 107.197L78.5176 100.002L79.8078 92.2524H89.2078L90.8667 93.1749H108.929L113.353 114.577L113.906 120.297L114.459 125.094H107.824L100.451 124.725H99.5294V96.3115Z"
        fill="white" />
    <path
        d="M90.8667 149.633L96.7647 145.943V156.46L97.8706 157.383L101.188 156.46L105.243 154.984L107.824 153.508L110.404 152.401L113.353 151.294L116.671 149.633L119.62 147.235L121.094 145.205V143.176L119.251 142.253L116.671 141.331H114.459L118.145 138.194L122.016 134.688L125.333 131.552L128.098 128.969H129.204V132.843L128.651 137.087L128.098 142.807V145.943L126.439 148.526L124.043 145.205L122.016 145.943L120.357 148.526L116.671 151.294L111.141 154.615L107.824 156.46L104.506 158.674L101.188 160.704L97.8706 162.918L94.7373 165.87H93.2627L90.8667 163.656L85.7059 159.597L81.8353 157.383L78.5176 155.538L74.2784 153.508L70.0392 150.74L66.3529 147.604L63.4039 145.205L62.298 142.807L59.5333 144.467L58.9804 130.629L59.5333 128.969L61.3765 130.629L64.5098 133.95L68.5647 137.087L70.7765 139.117L72.4353 141.331V142.807L70.7765 143.545L67.6431 143.176V145.205L69.4863 147.235L74.2784 150.187L79.2549 152.77L81.8353 154.062L85.7059 155.538H90.8667V149.633Z"
        fill="white" />
    <path d="M90.8667 127.677H96.7647V141.331L92.1569 145.205L90.8667 145.943V127.677Z" fill="white" />
    <path fill-rule="evenodd" clip-rule="evenodd"
        d="M81.4667 73.4329L89.2078 86.3482H97.8706V89.8538L84.0471 88.1933H61.5608V92.2524H76.6745L74.2784 102.216L71.5137 115.869L70.0392 124.356H68.5647V127.677H72.4353L75.2 131.552L79.8078 137.087L84.4157 141.331L86.8118 143.176L88.4706 144.467V153.139H86.8118L83.4941 151.663L78.5176 149.633L75.2 147.604L73.3569 145.943L78.5176 143.176L74.2784 139.117L70.0392 134.688L64.5098 129.707L60.4549 125.832L58.9804 124.356H55.6627L55.2941 126.017L55.6627 130.629L56.0314 138.748L56.5843 142.253L56.9529 147.235V150.187L57.8745 152.401H59.5333L60.8235 151.109L61.3765 149.633L62.298 148.526L64.6941 150.74L69.4863 154.062L71.5137 155.538L74.2784 156.46L76.3059 157.383L80.7294 159.966L83.4941 161.626L86.2588 163.656L89.0235 165.87L90.8667 168.084V169.56L93.2627 169.929L95.4745 169.006L98.4235 166.423L102.478 163.656L105.243 161.626L107.824 159.966L111.141 157.383L114.459 154.984L117.776 152.401L119.62 150.74L122.016 148.526L123.49 146.866L124.596 149.633L125.333 151.663L126.439 154.062H128.098L129.204 153.139L129.573 151.294L130.31 143.914L131.416 135.242L132.337 127.677L132.706 123.618L131.416 122.696H130.31L128.651 124.356L126.439 126.755L124.043 128.969L122.016 130.629L119.62 132.843L117.776 134.688L115.565 136.534L111.878 140.224L110.404 141.331L109.482 142.807L111.878 143.176H116.118L118.145 143.545L119.62 144.467L119.251 146.312L116.118 148.526L113.353 149.633L109.482 151.294L106.718 152.401L104.506 153.508L101.925 154.615L99.5294 155.538V143.914L99.898 133.95V127.677H118.145L117.776 124.356L115.565 111.81L114.827 105.352L113.906 100.002L113.353 94.0974V93.1749H129.204L129.757 92.2524V90.4073L128.651 89.8538H102.294V87.2708L103.584 85.6102L106.349 81.3666L108.929 77.492L109.851 76.016V74.7244L108.376 72.3259L106.349 69.9273L103.031 66.7907L97.6589 61.4127L81.4667 73.4329ZM89.2078 102.216L99.5294 96.3115V124.725H100.451L107.824 125.094H114.459L113.906 120.297L113.353 114.577L108.929 93.1749H90.8667L89.2078 92.2524H79.8078L78.5176 100.002L76.6745 107.197L75.2 114.577L73.3569 124.356H89.0235L89.2078 102.216ZM96.7647 127.677H90.8667V145.943L92.1569 145.205L96.7647 141.331V127.677ZM96.7647 145.943L90.8667 149.633V155.538H85.7059L81.8353 154.062L79.2549 152.77L74.2784 150.187L69.4863 147.235L67.6431 145.205V143.176L70.7765 143.545L72.4353 142.807V141.331L70.7765 139.117L68.5647 137.087L64.5098 133.95L61.3765 130.629L59.5333 128.969L58.9804 130.629L59.5333 144.467L62.298 142.807L63.4039 145.205L66.3529 147.604L70.0392 150.74L74.2784 153.508L78.5176 155.538L81.8353 157.383L85.7059 159.597L90.8667 163.656L93.2627 165.87H94.7373L97.8706 162.918L101.188 160.704L104.506 158.674L107.824 156.46L111.141 154.615L116.671 151.294L120.357 148.526L122.016 145.943L124.043 145.205L126.439 148.526L128.098 145.943V142.807L128.651 137.087L129.204 132.843V128.969H128.098L125.333 131.552L122.016 134.688L118.145 138.194L114.459 141.331H116.671L119.251 142.253L121.094 143.176V145.205L119.62 147.235L116.671 149.633L113.353 151.294L110.404 152.401L107.824 153.508L105.243 154.984L101.188 156.46L97.8706 157.383L96.7647 156.46V145.943ZM87.7333 127.677H81.4667L81.8353 131.552L84.4157 134.688L87.7333 135.242V127.677ZM85.8902 73.4329L97.6589 65.1302L106.349 76.016L100.451 83.9497H91.6039L85.8902 76.754L85.1529 74.7244L85.8902 73.4329Z"
        fill="black" />
    <path d="M81.4667 127.677H87.7333V135.242L84.4157 134.688L81.8353 131.552L81.4667 127.677Z" fill="#76C5DC" />
    <path
        d="M31.5411 110.108L39.004 109.299L39.1182 110.504L34.369 114.58L34.3749 114.643L39.4582 114.091L39.5867 115.446L32.1238 116.256L32.0089 115.043L36.7621 110.97L36.7559 110.904L31.6689 111.456L31.5411 110.108Z"
        fill="black" />
    <path d="M31.5712 106.445L39.0778 106.416L39.0824 107.777L31.5759 107.806L31.5712 106.445Z" fill="black" />
    <path
        d="M34.459 98.5567C34.2566 98.5972 34.0728 98.663 33.9075 98.7541C33.7401 98.8425 33.5937 98.9553 33.4685 99.0923C33.3435 99.2269 33.2444 99.3863 33.1714 99.5706C33.0959 99.7546 33.048 99.9586 33.0278 100.183C32.9915 100.585 33.06 100.953 33.2333 101.288C33.4067 101.624 33.6809 101.901 34.0559 102.122C34.4288 102.34 34.8947 102.478 35.4537 102.536C36.0176 102.594 36.5033 102.555 36.9107 102.417C37.3181 102.28 37.6382 102.064 37.8709 101.768C38.1013 101.472 38.2354 101.115 38.2732 100.696C38.3076 100.316 38.2644 99.9793 38.1436 99.6865C38.0231 99.3912 37.836 99.1543 37.5822 98.9756C37.3261 98.7966 37.0169 98.6884 36.6548 98.651L36.7299 98.3489L36.5463 100.381L35.489 100.271L35.7633 97.2347L36.6602 97.3274C37.2995 97.3935 37.8401 97.5871 38.2822 97.9082C38.7242 98.2294 39.05 98.6417 39.2597 99.1454C39.4669 99.6487 39.5426 100.21 39.4867 100.829C39.4244 101.518 39.2154 102.107 38.8596 102.597C38.5016 103.084 38.0238 103.444 37.4262 103.677C36.8264 103.907 36.1327 103.982 35.3452 103.901C34.7424 103.838 34.2117 103.697 33.7532 103.478C33.2948 103.256 32.9143 102.973 32.6117 102.629C32.3067 102.286 32.0867 101.896 31.9517 101.462C31.8144 101.027 31.7678 100.565 31.812 100.075C31.8494 99.6613 31.9451 99.2815 32.099 98.9359C32.2504 98.5901 32.4493 98.2898 32.6955 98.035C32.942 97.7777 33.2253 97.5746 33.5454 97.4258C33.8656 97.2769 34.2117 97.1934 34.5837 97.1754L34.459 98.5567Z"
        fill="black" />
    <path
        d="M39.9607 96.237L32.6622 94.4799L33.6678 89.6975L34.7761 89.9643L34.0506 93.4147L36.032 93.8917L36.7055 90.689L37.8138 90.9558L37.1403 94.1585L39.1325 94.6381L39.864 91.159L40.9724 91.4258L39.9607 96.237Z"
        fill="black" />
    <path
        d="M41.4294 89.71L34.4045 87.0616L35.2857 84.3854C35.4663 83.8371 35.7115 83.4125 36.0214 83.1115C36.3321 82.8081 36.688 82.625 37.0892 82.5621C37.4888 82.496 37.9128 82.5475 38.361 82.7164C38.8115 82.8863 39.1704 83.1313 39.4377 83.4514C39.7035 83.7684 39.8647 84.1491 39.9215 84.5936C39.9759 85.0371 39.9129 85.5331 39.7323 86.0813L39.1046 87.9874L38.0482 87.5891L38.6185 85.8573C38.724 85.5367 38.767 85.2578 38.7475 85.0206C38.7256 84.7825 38.6461 84.5828 38.509 84.4214C38.3704 84.2569 38.1765 84.1276 37.9272 84.0337C37.678 83.9397 37.4488 83.9095 37.2399 83.943C37.0286 83.9756 36.8436 84.0769 36.6848 84.2469C36.5237 84.416 36.39 84.662 36.2837 84.9849L35.8935 86.1697L41.8551 88.4172L41.4294 89.71ZM39.4603 84.8232L43.2252 84.2565L42.7501 85.6992L38.9955 86.2345L39.4603 84.8232Z"
        fill="black" />
    <path d="M37.5757 78.4982L44.3118 81.8145L43.7741 83.0648L37.0381 79.7486L37.5757 78.4982Z" fill="black" />
    <path
        d="M45.6673 78.8392L44.9712 80.1142L39.8713 73.8129L40.6763 72.3383L48.3128 73.9936L47.6167 75.2686L41.5937 73.8661L41.5655 73.9176L45.6673 78.8392ZM43.1936 77.2369L45.092 73.7596L46.0185 74.3387L44.1201 77.816L43.1936 77.2369Z"
        fill="black" />
    <path
        d="M46.7041 63.3549L52.4881 68.1446L51.7788 69.1253L45.7646 68.7307L45.7281 68.7812L49.6679 72.0437L48.8704 73.1463L43.0863 68.3566L43.8 67.3699L49.8148 67.7699L49.8535 67.7164L45.9109 64.4515L46.7041 63.3549Z"
        fill="black" />
    <path
        d="M55.3045 54.5803L60.0789 60.3788L59.1984 61.2089L53.3712 59.6866L53.3259 59.7294L56.578 63.6791L55.588 64.6123L50.8136 58.8137L51.6995 57.9786L57.5263 59.5063L57.5743 59.461L54.3198 55.5085L55.3045 54.5803Z"
        fill="black" />
    <path
        d="M61.7952 59.0598L60.6168 59.9082L58.7633 52.0043L60.1261 51.0231L66.2736 55.8356L65.0952 56.684L60.2886 52.8007L60.241 52.835L61.7952 59.0598ZM60.2659 56.5386L63.4796 54.2248L64.0615 55.1502L60.8478 57.4639L60.2659 56.5386Z"
        fill="black" />
    <path
        d="M64.7231 48.1499L68.9441 52.5911L69.012 52.5548L68.2363 46.2765L69.5562 45.5727L70.3925 53.6287L68.9109 54.4187L63.4065 48.8519L64.7231 48.1499Z"
        fill="black" />
    <path
        d="M70.677 45.1586L72.1164 44.6227L74.8655 47.1428L74.9343 47.1172L75.6274 43.3154L77.0668 42.7795L75.9643 48.2122L76.8312 50.8777L75.5601 51.3509L74.6933 48.6854L70.677 45.1586Z"
        fill="black" />
    <path
        d="M86.5233 42.9946C86.444 42.683 86.2662 42.4594 85.9901 42.3239C85.7163 42.188 85.3805 42.1527 84.9827 42.2181C84.703 42.2641 84.4691 42.3459 84.2812 42.4636C84.0932 42.5812 83.9566 42.7214 83.8714 42.8841C83.7861 43.0468 83.7557 43.2216 83.7801 43.4084C83.8023 43.5634 83.8566 43.692 83.9428 43.7943C84.0315 43.8962 84.1431 43.977 84.2775 44.0367C84.4116 44.0939 84.5572 44.1369 84.7144 44.1656C84.8715 44.1943 85.0287 44.2143 85.1858 44.2257L85.9053 44.2858C86.1944 44.3052 86.4759 44.3494 86.7499 44.4184C87.0263 44.4869 87.2792 44.5891 87.5085 44.7249C87.7402 44.8603 87.9335 45.0379 88.0885 45.2578C88.2435 45.4777 88.3441 45.7486 88.3903 46.0707C88.4529 46.5065 88.3971 46.9085 88.2229 47.2766C88.0483 47.6424 87.7646 47.953 87.3718 48.2084C86.9811 48.461 86.4892 48.636 85.896 48.7335C85.3197 48.8283 84.8065 48.8209 84.3564 48.7115C83.9087 48.6017 83.5408 48.3945 83.2527 48.09C82.9671 47.785 82.7791 47.3871 82.6889 46.8964L84.0091 46.6794C84.0656 46.9353 84.1761 47.1377 84.3406 47.2866C84.5051 47.4355 84.7056 47.5339 84.942 47.5818C85.1809 47.6292 85.4401 47.63 85.7198 47.584C86.0116 47.5361 86.2609 47.4505 86.4678 47.3272C86.6768 47.2012 86.8327 47.0492 86.9355 46.8712C87.0379 46.6908 87.0751 46.4938 87.0469 46.2804C87.0167 46.0871 86.937 45.9366 86.808 45.8289C86.6787 45.7188 86.5079 45.6378 86.2956 45.586C86.0853 45.5313 85.8427 45.4919 85.5678 45.4677L84.6937 45.3883C84.0611 45.3313 83.5446 45.172 83.1442 44.9107C82.746 44.6466 82.5086 44.2482 82.4321 43.7155C82.3692 43.2773 82.4322 42.8741 82.6213 42.5059C82.8127 42.1374 83.1003 41.8287 83.4842 41.5797C83.8677 41.3283 84.3186 41.16 84.837 41.0748C85.3627 40.9884 85.8364 41.0047 86.2583 41.1237C86.6823 41.2398 87.0308 41.4415 87.3041 41.7287C87.577 42.0135 87.7471 42.3647 87.8145 42.7824L86.5233 42.9946Z"
        fill="black" />
    <path
        d="M89.8431 48.1323L89.5974 40.6219L94.4762 40.4392L94.5135 41.5797L90.9936 41.7115L91.0603 43.7505L94.3275 43.6281L94.3648 44.7686L91.0976 44.891L91.1646 46.9409L94.7139 46.808L94.7512 47.9485L89.8431 48.1323Z"
        fill="black" />
    <path
        d="M102.973 43.6808L101.608 43.5528C101.587 43.3248 101.532 43.1194 101.442 42.9365C101.351 42.7512 101.233 42.5902 101.088 42.4537C100.942 42.3172 100.772 42.2091 100.577 42.1295C100.385 42.0476 100.175 41.9959 99.9465 41.9745C99.5402 41.9364 99.1717 42.005 98.8411 42.1803C98.5107 42.3532 98.2406 42.6276 98.0308 43.0034C97.8212 43.3768 97.6934 43.8451 97.6472 44.4082C97.6003 44.9811 97.6495 45.4722 97.7949 45.8813C97.943 46.2883 98.1645 46.6063 98.4596 46.8355C98.7572 47.0624 99.108 47.1948 99.5119 47.2327C99.7357 47.2537 99.9473 47.2441 100.147 47.2038C100.349 47.1614 100.532 47.0889 100.698 46.9865C100.865 46.8843 101.01 46.7529 101.131 46.5923C101.254 46.4319 101.346 46.244 101.405 46.0285L102.769 46.1638C102.689 46.515 102.551 46.8386 102.355 47.1346C102.162 47.4309 101.919 47.6858 101.627 47.8991C101.335 48.11 101.001 48.2654 100.625 48.3652C100.249 48.4627 99.839 48.4905 99.3938 48.4487C98.7369 48.3871 98.1631 48.1797 97.6723 47.8265C97.1815 47.4734 96.8113 46.9953 96.5616 46.3921C96.3119 45.7889 96.2201 45.085 96.286 44.2805C96.3521 43.4736 96.5583 42.7977 96.9045 42.2529C97.2509 41.7056 97.6945 41.3038 98.2352 41.0474C98.776 40.7911 99.3723 40.6935 100.024 40.7547C100.44 40.7937 100.822 40.8885 101.17 41.0391C101.519 41.1897 101.823 41.3915 102.084 41.6444C102.346 41.895 102.553 42.192 102.706 42.5356C102.862 42.877 102.951 43.2587 102.973 43.6808Z"
        fill="black" />
    <path
        d="M110.577 46.7925C110.412 47.585 110.122 48.2285 109.71 48.7231C109.3 49.2158 108.81 49.5513 108.242 49.7295C107.675 49.9083 107.072 49.9212 106.433 49.7683C105.794 49.6154 105.252 49.3287 104.809 48.9084C104.368 48.4862 104.059 47.9585 103.882 47.3254C103.707 46.6904 103.703 45.9779 103.868 45.1878C104.033 44.3952 104.321 43.7526 104.731 43.2599C105.144 42.7653 105.633 42.4286 106.2 42.2499C106.768 42.0717 107.372 42.059 108.012 42.2119C108.651 42.3648 109.191 42.6512 109.633 43.071C110.076 43.4913 110.385 44.019 110.56 44.654C110.737 45.2871 110.743 45.9999 110.577 46.7925ZM109.247 46.4744C109.364 45.9165 109.375 45.4253 109.282 45.0007C109.191 44.5743 109.015 44.2266 108.751 43.9575C108.489 43.686 108.159 43.5028 107.762 43.4079C107.365 43.3129 106.994 43.3285 106.648 43.4544C106.303 43.578 106.003 43.8118 105.749 44.1558C105.498 44.4979 105.314 44.9479 105.198 45.5058C105.081 46.0637 105.068 46.5558 105.159 46.9822C105.252 47.4068 105.43 47.7548 105.693 48.0263C105.956 48.2954 106.286 48.4774 106.683 48.5723C107.08 48.6673 107.451 48.653 107.796 48.5294C108.142 48.4034 108.44 48.1694 108.692 47.8272C108.946 47.4832 109.131 47.0323 109.247 46.4744Z"
        fill="black" />
    <path
        d="M118.68 46.0316L116.238 53.1372L115.112 52.6943L113.483 46.5591L113.425 46.5363L111.762 51.3763L110.496 50.8784L112.938 43.7727L114.071 44.2183L115.695 50.3557L115.756 50.3798L117.421 45.5363L118.68 46.0316Z"
        fill="black" />
    <path
        d="M119.349 54.9872L117.129 53.7437L120.431 46.9953L122.696 48.264C123.346 48.6283 123.839 49.0764 124.173 49.6082C124.511 50.139 124.683 50.7264 124.689 51.3704C124.694 52.0144 124.525 52.6868 124.182 53.3875C123.838 54.0905 123.416 54.6235 122.915 54.9866C122.416 55.3509 121.863 55.5349 121.255 55.5387C120.65 55.5437 120.014 55.3599 119.349 54.9872ZM118.833 53.3507L119.809 53.8972C120.265 54.1528 120.688 54.2804 121.076 54.2799C121.466 54.2772 121.822 54.1475 122.143 53.8908C122.465 53.6319 122.753 53.2444 123.005 52.7281C123.258 52.2119 123.391 51.7405 123.404 51.314C123.418 50.8853 123.316 50.5022 123.098 50.1646C122.884 49.826 122.554 49.5325 122.111 49.284L121.1 48.7178L118.833 53.3507Z"
        fill="black" />
    <path
        d="M124.115 58.0898L122.955 57.2175L129.19 52.5256L130.533 53.5344L128.527 61.4049L127.366 60.5326L129.039 54.3355L128.993 54.3003L124.115 58.0898ZM125.77 55.656L128.935 58.035L128.336 58.9488L125.17 56.5698L125.77 55.656Z"
        fill="black" />
    <path
        d="M129.043 62.1232L133.903 56.3963L135.923 58.3589C136.337 58.7609 136.619 59.1747 136.77 59.6001C136.923 60.0272 136.954 60.4486 136.864 60.8642C136.777 61.2797 136.578 61.6701 136.268 62.0355C135.956 62.4027 135.612 62.65 135.236 62.7772C134.862 62.9042 134.471 62.9034 134.062 62.7747C133.654 62.6441 133.244 62.3778 132.83 61.9757L131.391 60.5779L132.122 59.7167L133.429 60.9867C133.671 61.2218 133.9 61.3789 134.114 61.458C134.33 61.5352 134.533 61.5406 134.724 61.4742C134.918 61.4076 135.101 61.2727 135.274 61.0695C135.446 60.8663 135.556 60.6563 135.602 60.4395C135.65 60.2209 135.629 59.9993 135.538 59.7748C135.448 59.5485 135.282 59.3169 135.038 59.0801L134.143 58.2112L130.019 63.0713L129.043 62.1232ZM134.028 62.2318L133.16 66.1225L132.071 65.0645L132.963 61.1969L134.028 62.2318Z"
        fill="black" />
    <path
        d="M138.953 61.5321L139.916 62.7291L138.626 66.4121L138.672 66.4692L142.267 65.6487L143.231 66.8457L138.055 67.9086L135.995 69.8075L135.144 68.7505L137.204 66.8516L138.953 61.5321Z"
        fill="black" />
    <path
        d="M146.422 76.361C146.677 76.1612 146.819 75.9024 146.849 75.5846C146.879 75.269 146.798 74.9341 146.605 74.5799C146.469 74.3309 146.316 74.14 146.146 74.0072C145.976 73.8744 145.803 73.7996 145.627 73.7829C145.451 73.7662 145.283 73.8067 145.122 73.9043C144.99 73.9872 144.892 74.0902 144.828 74.2133C144.766 74.3386 144.731 74.4774 144.722 74.6296C144.715 74.7805 144.726 74.9368 144.753 75.0984C144.78 75.2599 144.815 75.4181 144.857 75.5727L145.046 76.2842C145.126 76.5681 145.181 76.8548 145.211 77.144C145.242 77.4354 145.235 77.7177 145.189 77.9908C145.145 78.2661 145.049 78.5216 144.903 78.7571C144.756 78.9927 144.545 79.1967 144.269 79.369C143.896 79.6021 143.514 79.7088 143.122 79.6888C142.732 79.6675 142.356 79.52 141.992 79.2463C141.632 78.9734 141.308 78.5729 141.02 78.0449C140.739 77.5319 140.573 77.0386 140.52 76.5649C140.468 76.0934 140.532 75.6595 140.71 75.263C140.89 74.8687 141.186 74.5308 141.599 74.2493L142.241 75.4245C142.029 75.5803 141.883 75.7664 141.804 75.9829C141.724 76.1994 141.703 76.4301 141.74 76.6751C141.777 76.9222 141.864 77.1702 142 77.4192C142.142 77.6789 142.303 77.8831 142.484 78.0318C142.669 78.1814 142.859 78.2698 143.055 78.2972C143.252 78.3234 143.443 78.2805 143.627 78.1686C143.791 78.0628 143.901 77.9269 143.954 77.7608C144.01 77.5934 144.026 77.3979 144.001 77.1744C143.98 76.9518 143.934 76.7043 143.863 76.4319L143.64 75.5651C143.478 74.9379 143.448 74.381 143.549 73.8944C143.654 73.4087 143.934 73.0234 144.39 72.7384C144.765 72.5039 145.151 72.4037 145.548 72.4379C145.946 72.4742 146.322 72.6262 146.677 72.8939C147.033 73.1604 147.338 73.5243 147.59 73.9858C147.845 74.4537 147.99 74.9129 148.025 75.3634C148.063 75.8148 147.998 76.2281 147.83 76.6035C147.665 76.9775 147.404 77.2799 147.049 77.5104L146.422 76.361Z"
        fill="black" />
    <path
        d="M149.879 85.7172L149.37 84.443C149.56 84.3132 149.714 84.1634 149.833 83.9936C149.954 83.8227 150.041 83.6392 150.094 83.4431C150.147 83.2469 150.164 83.043 150.146 82.8313C150.13 82.6209 150.08 82.409 149.994 82.1955C149.843 81.8161 149.615 81.5227 149.312 81.315C149.01 81.1063 148.647 81.0009 148.223 80.9986C147.801 80.9954 147.334 81.1111 146.82 81.3458C146.298 81.5846 145.891 81.8687 145.599 82.1981C145.311 82.5287 145.133 82.8811 145.067 83.2551C145.004 83.6304 145.048 84.0066 145.198 84.3837C145.282 84.5926 145.386 84.7758 145.512 84.9331C145.641 85.0917 145.788 85.2193 145.953 85.3159C146.119 85.4147 146.299 85.4786 146.495 85.5074C146.691 85.5385 146.897 85.5276 147.113 85.4748L147.615 86.7521C147.271 86.8527 146.925 86.8886 146.577 86.8596C146.23 86.833 145.897 86.7422 145.578 86.5874C145.26 86.4316 144.973 86.2112 144.714 85.9264C144.458 85.6406 144.247 85.2898 144.081 84.8741C143.836 84.2609 143.757 83.65 143.842 83.0414C143.928 82.4329 144.178 81.8702 144.592 81.3533C145.006 80.8364 145.579 80.4103 146.313 80.075C147.049 79.7387 147.733 79.5908 148.367 79.6314C149.003 79.671 149.557 79.8681 150.027 80.2226C150.497 80.5771 150.853 81.0588 151.096 81.6675C151.251 82.0559 151.342 82.4414 151.369 82.8241C151.396 83.2068 151.358 83.576 151.255 83.9317C151.155 84.2863 150.99 84.6158 150.759 84.92C150.531 85.2255 150.238 85.4913 149.879 85.7172Z"
        fill="black" />
    <path
        d="M145.558 88.8802L152.747 86.7198L153.093 88.0363L150.049 88.951L150.933 92.3186L153.977 91.404L154.323 92.7242L147.134 94.8846L146.787 93.5645L149.841 92.6467L148.957 89.279L145.903 90.1968L145.558 88.8802Z"
        fill="black" />
    <path
        d="M151.886 102.319C151.087 102.441 150.382 102.395 149.772 102.181C149.164 101.969 148.675 101.628 148.305 101.158C147.934 100.69 147.706 100.13 147.619 99.4773C147.532 98.8251 147.606 98.2178 147.839 97.6553C148.075 97.095 148.457 96.6212 148.985 96.2341C149.515 95.8491 150.179 95.5959 150.976 95.4745C151.776 95.3528 152.479 95.3978 153.087 95.6096C153.697 95.8235 154.187 96.1645 154.557 96.6325C154.928 97.103 155.157 97.6644 155.243 98.3166C155.33 98.9688 155.257 99.575 155.023 100.135C154.79 100.697 154.408 101.171 153.877 101.556C153.35 101.943 152.686 102.198 151.886 102.319ZM151.706 100.963C152.269 100.877 152.732 100.716 153.095 100.481C153.461 100.247 153.722 99.9596 153.879 99.619C154.038 99.2782 154.091 98.9052 154.037 98.5003C153.983 98.0954 153.835 97.753 153.593 97.4732C153.354 97.193 153.028 96.994 152.616 96.8762C152.206 96.7605 151.719 96.7454 151.157 96.8311C150.594 96.9168 150.129 97.0766 149.764 97.3104C149.401 97.5462 149.14 97.8346 148.98 98.1755C148.824 98.516 148.772 98.8887 148.826 99.2936C148.88 99.6986 149.026 100.041 149.266 100.321C149.507 100.601 149.833 100.799 150.243 100.915C150.655 101.032 151.143 101.049 151.706 100.963Z"
        fill="black" />
    <path
        d="M151.946 110.741C151.137 110.746 150.443 110.599 149.865 110.3C149.289 110.003 148.846 109.595 148.538 109.076C148.229 108.56 148.073 107.972 148.069 107.314C148.065 106.656 148.214 106.066 148.517 105.543C148.822 105.022 149.26 104.608 149.833 104.301C150.407 103.996 151.098 103.841 151.904 103.835C152.713 103.83 153.406 103.976 153.982 104.273C154.56 104.572 155.004 104.98 155.312 105.496C155.621 106.015 155.777 106.604 155.781 107.262C155.785 107.92 155.636 108.509 155.333 109.03C155.031 109.553 154.592 109.967 154.017 110.271C153.445 110.579 152.754 110.735 151.946 110.741ZM151.938 109.372C152.507 109.368 152.986 109.276 153.376 109.094C153.769 108.916 154.064 108.669 154.263 108.354C154.464 108.04 154.563 107.678 154.56 107.27C154.558 106.861 154.454 106.501 154.25 106.19C154.047 105.878 153.749 105.634 153.355 105.458C152.963 105.285 152.482 105.2 151.913 105.204C151.343 105.208 150.862 105.299 150.47 105.478C150.08 105.659 149.785 105.907 149.584 106.222C149.385 106.536 149.287 106.898 149.29 107.306C149.292 107.715 149.395 108.075 149.597 108.386C149.801 108.698 150.1 108.941 150.492 109.114C150.886 109.29 151.368 109.376 151.938 109.372Z"
        fill="black" />
    <path
        d="M148.01 111.976L155.461 112.885L155.317 114.239L148.997 113.468L148.646 116.758L147.515 116.62L148.01 111.976Z"
        fill="black" />
    <path
        d="M34.7021 134.251L42.1988 134.637L42.0985 135.995L38.9249 135.831L38.6683 139.304L41.8419 139.467L41.7414 140.828L34.2447 140.442L34.3453 139.081L37.5299 139.245L37.7865 135.773L34.6018 135.609L34.7021 134.251Z"
        fill="black" />
    <path
        d="M34.5035 144.709L34.2779 143.274L42.1508 145.07L42.4117 146.73L35.361 150.164L35.1354 148.728L40.7555 146.096L40.7464 146.038L34.5035 144.709ZM37.4367 144.436L38.0521 148.35L36.9663 148.469L36.3509 144.554L37.4367 144.436Z"
        fill="black" />
    <path
        d="M36.1097 153.157L43.3535 151.186L44.3785 153.811C44.5885 154.348 44.668 154.826 44.617 155.243C44.5669 155.662 44.4038 156.013 44.1278 156.295C43.855 156.578 43.4875 156.783 43.0254 156.908C42.5608 157.035 42.1203 157.049 41.7036 156.95C41.2902 156.854 40.9183 156.646 40.5879 156.328C40.2598 156.009 39.9908 155.58 39.7808 155.043L39.0507 153.174L40.1402 152.877L40.8035 154.576C40.9263 154.89 41.0716 155.135 41.2395 155.311C41.4098 155.487 41.6008 155.599 41.8127 155.647C42.0278 155.697 42.2639 155.687 42.5209 155.617C42.7779 155.547 42.9781 155.438 43.1214 155.291C43.267 155.143 43.3479 154.956 43.3639 154.729C43.3823 154.503 43.3296 154.231 43.206 153.914L42.7522 152.752L36.6049 154.425L36.1097 153.157ZM40.8041 155.88L38.1984 158.505L37.6459 157.09L40.2636 154.496L40.8041 155.88Z"
        fill="black" />
    <path
        d="M40.8673 163.636L39.4737 161.505L46.3057 158.392L47.7274 160.565C48.1357 161.189 48.3496 161.788 48.3693 162.36C48.3924 162.934 48.2284 163.458 47.8771 163.932C47.5257 164.405 46.9954 164.804 46.2859 165.127C45.5743 165.451 44.883 165.608 44.2122 165.598C43.5428 165.589 42.922 165.419 42.3499 165.088C41.7792 164.758 41.285 164.274 40.8673 163.636ZM41.2895 162.156L41.902 163.092C42.1885 163.53 42.5142 163.856 42.8791 164.07C43.2462 164.282 43.6514 164.383 44.0947 164.372C44.5403 164.36 45.0244 164.235 45.547 163.997C46.0696 163.759 46.4551 163.488 46.7034 163.183C46.954 162.878 47.0705 162.542 47.053 162.175C47.039 161.81 46.8928 161.414 46.6144 160.989L45.9798 160.019L41.2895 162.156Z"
        fill="black" />
    <path
        d="M46.0298 171.09L50.5458 165.187L51.6071 166.195L48.1402 170.391L48.1907 170.439L53.6872 168.169L54.6528 169.085L51.2521 173.35L51.2999 173.395L56.7329 171.059L57.7942 172.066L50.2033 175.051L49.2297 174.127L52.3866 169.974L52.3441 169.934L47.0033 172.014L46.0298 171.09Z"
        fill="black" />
    <path
        d="M63.2063 180C62.6776 180.613 62.0949 181.06 61.4582 181.341C60.8252 181.621 60.1857 181.742 59.5398 181.706C58.896 181.67 58.2924 181.483 57.7289 181.144C57.1653 180.805 56.7603 180.386 56.5138 179.887C56.2709 179.386 56.2073 178.841 56.3229 178.25C56.4422 177.658 56.7654 177.057 57.2925 176.446C57.8212 175.833 58.402 175.386 59.0351 175.106C59.6718 174.826 60.3121 174.703 60.9558 174.739C61.6017 174.775 62.2064 174.963 62.7699 175.302C63.3335 175.641 63.7375 176.059 63.9819 176.558C64.2285 177.057 64.2921 177.603 64.1728 178.195C64.0572 178.786 63.735 179.388 63.2063 180ZM62.0342 179.296C62.4064 178.865 62.6438 178.455 62.7465 178.067C62.8528 177.678 62.8374 177.327 62.7002 177.014C62.5646 176.699 62.3219 176.437 61.9721 176.227C61.6222 176.016 61.247 175.907 60.8462 175.9C60.4471 175.89 60.0425 175.989 59.6324 176.195C59.226 176.4 58.8367 176.719 58.4646 177.15C58.0924 177.581 57.8531 177.992 57.7468 178.38C57.6442 178.768 57.6606 179.12 57.7962 179.435C57.9334 179.748 58.1769 180.009 58.5267 180.219C58.8766 180.43 59.2511 180.54 59.6502 180.549C60.0509 180.557 60.4545 180.458 60.8609 180.252C61.2709 180.046 61.6621 179.727 62.0342 179.296Z"
        fill="black" />
    <path
        d="M64.8551 185.24L68.5153 178.679L71.1395 179.699C71.677 179.908 72.0792 180.171 72.346 180.487C72.615 180.805 72.7547 181.158 72.7652 181.547C72.7791 181.934 72.6693 182.337 72.4358 182.756C72.2011 183.177 71.9016 183.505 71.5375 183.74C71.1769 183.974 70.765 184.104 70.3019 184.129C69.8399 184.152 69.3401 184.059 68.8026 183.85L66.9336 183.124L67.484 182.137L69.1822 182.797C69.4965 182.919 69.7766 182.979 70.0223 182.976C70.2692 182.97 70.4846 182.907 70.6684 182.786C70.8558 182.664 71.0144 182.487 71.1442 182.254C71.2741 182.021 71.3359 181.804 71.3297 181.601C71.3247 181.396 71.2458 181.212 71.093 181.049C70.9414 180.884 70.7073 180.739 70.3906 180.616L69.2289 180.165L66.1228 185.732L64.8551 185.24ZM70.1287 183.672L70.2025 187.318L68.7879 186.768L68.7448 183.134L70.1287 183.672Z"
        fill="black" />
    <path
        d="M74.6921 188.993L76.9615 181.83L78.2895 182.124L77.2468 185.415L77.3362 185.434L81.2389 182.774L82.8603 183.132L79.0071 185.721L80.616 190.301L79.0196 189.948L77.8055 186.395L76.696 187.153L76.0201 189.286L74.6921 188.993Z"
        fill="black" />
    <path
        d="M92.8292 191.681C92.3161 191.684 91.8742 191.594 91.5036 191.41C91.133 191.226 90.8461 190.978 90.643 190.663C90.4422 190.346 90.3401 189.989 90.3366 189.59C90.3339 189.289 90.3926 189.022 90.5127 188.789C90.6353 188.556 90.8045 188.34 91.0202 188.14C91.2383 187.941 91.4907 187.742 91.7773 187.545L93.0998 186.63C93.2941 186.502 93.4408 186.366 93.5397 186.224C93.6411 186.081 93.6909 185.915 93.6892 185.724C93.6878 185.563 93.618 185.41 93.4799 185.267C93.3442 185.123 93.1579 185.052 92.9209 185.054C92.7621 185.055 92.6219 185.093 92.5004 185.17C92.3813 185.244 92.2881 185.341 92.2207 185.462C92.1558 185.582 92.1239 185.709 92.1251 185.844C92.1266 186.008 92.1733 186.174 92.2652 186.342C92.3595 186.51 92.4808 186.684 92.629 186.864C92.7797 187.044 92.9402 187.235 93.1106 187.437L96.6695 191.547L95.2327 191.556L92.2781 188.22C92.0584 187.967 91.846 187.718 91.6411 187.472C91.4385 187.226 91.2713 186.971 91.1394 186.705C91.01 186.436 90.9439 186.146 90.9411 185.833C90.938 185.478 91.017 185.161 91.1783 184.881C91.3395 184.599 91.566 184.376 91.8578 184.213C92.152 184.049 92.4971 183.967 92.8929 183.964C93.2888 183.962 93.6291 184.038 93.9139 184.193C94.1988 184.347 94.4193 184.554 94.5755 184.812C94.7318 185.071 94.8112 185.353 94.8139 185.658C94.8171 186.013 94.7319 186.332 94.5585 186.614C94.385 186.894 94.1429 187.149 93.8322 187.378L92.3246 188.499C92.077 188.682 91.9002 188.866 91.7943 189.053C91.6884 189.237 91.6361 189.394 91.6372 189.523C91.639 189.721 91.6906 189.901 91.7923 190.062C91.8939 190.223 92.0355 190.351 92.2172 190.448C92.4013 190.542 92.6155 190.589 92.8599 190.587C93.1287 190.586 93.3933 190.524 93.6537 190.402C93.914 190.279 94.1507 190.103 94.3638 189.877C94.5768 189.651 94.7455 189.381 94.8698 189.067C94.994 188.75 95.0545 188.4 95.0511 188.016L96.191 188.009C96.1952 188.484 96.1463 188.897 96.0443 189.25C95.9424 189.601 95.8094 189.898 95.6454 190.141C95.4813 190.381 95.3071 190.575 95.1227 190.72C95.0644 190.762 95.0086 190.804 94.9552 190.846C94.9018 190.888 94.8459 190.93 94.7877 190.972C94.5259 191.213 94.2183 191.391 93.865 191.506C93.5142 191.62 93.1689 191.679 92.8292 191.681Z"
        fill="black" />
    <path
        d="M109.302 189.711L106.829 190.306L104.375 183.204L106.899 182.597C107.623 182.423 108.295 182.415 108.913 182.574C109.534 182.731 110.075 183.04 110.538 183.502C111.002 183.964 111.361 184.563 111.615 185.301C111.871 186.041 111.949 186.71 111.85 187.31C111.753 187.909 111.489 188.415 111.058 188.827C110.628 189.238 110.043 189.533 109.302 189.711ZM107.766 188.875L108.853 188.613C109.362 188.491 109.755 188.299 110.032 188.037C110.309 187.772 110.47 187.439 110.517 187.037C110.562 186.633 110.491 186.16 110.304 185.616C110.116 185.073 109.875 184.643 109.58 184.326C109.284 184.006 108.938 183.798 108.542 183.7C108.147 183.6 107.702 183.609 107.208 183.728L106.082 183.999L107.766 188.875Z"
        fill="black" />
    <path d="M115.5 179.962L119.079 186.567L117.806 187.048L114.227 180.442L115.5 179.962Z" fill="black" />
    <path
        d="M123.342 178.512C123.119 178.272 122.841 178.14 122.509 178.115C122.178 178.09 121.835 178.171 121.478 178.358C121.227 178.49 121.037 178.637 120.909 178.8C120.781 178.962 120.713 179.127 120.706 179.294C120.699 179.462 120.751 179.621 120.863 179.772C120.957 179.897 121.07 179.989 121.202 180.048C121.336 180.106 121.482 180.138 121.641 180.144C121.799 180.149 121.961 180.138 122.127 180.11C122.294 180.083 122.456 180.048 122.615 180.006L123.344 179.819C123.635 179.74 123.93 179.685 124.229 179.653C124.53 179.62 124.824 179.624 125.111 179.664C125.401 179.703 125.672 179.791 125.926 179.927C126.18 180.064 126.405 180.262 126.6 180.522C126.865 180.873 126.999 181.235 127.001 181.607C127.002 181.977 126.871 182.336 126.608 182.684C126.345 183.029 125.948 183.341 125.415 183.621C124.898 183.892 124.395 184.056 123.905 184.111C123.417 184.165 122.962 184.11 122.539 183.945C122.118 183.779 121.749 183.501 121.431 183.112L122.616 182.49C122.791 182.69 122.993 182.826 123.223 182.899C123.453 182.972 123.694 182.99 123.947 182.952C124.202 182.914 124.455 182.829 124.706 182.697C124.968 182.56 125.171 182.404 125.315 182.231C125.459 182.054 125.54 181.872 125.557 181.686C125.573 181.498 125.517 181.318 125.389 181.145C125.269 180.99 125.121 180.888 124.945 180.838C124.768 180.787 124.564 180.774 124.332 180.8C124.102 180.823 123.847 180.87 123.568 180.94L122.679 181.161C122.036 181.322 121.458 181.356 120.946 181.266C120.434 181.172 120.016 180.91 119.693 180.48C119.426 180.127 119.299 179.762 119.311 179.385C119.325 179.007 119.461 178.648 119.719 178.308C119.975 177.967 120.336 177.674 120.801 177.43C121.273 177.182 121.742 177.039 122.209 177.002C122.676 176.961 123.11 177.018 123.511 177.173C123.91 177.325 124.24 177.569 124.501 177.904L123.342 178.512Z"
        fill="black" />
    <path
        d="M133.098 172.255L132.013 173.092C131.815 172.965 131.61 172.876 131.398 172.824C131.184 172.77 130.97 172.75 130.755 172.764C130.54 172.777 130.331 172.825 130.127 172.906C129.923 172.985 129.73 173.094 129.548 173.234C129.225 173.484 129.015 173.773 128.917 174.104C128.818 174.432 128.844 174.783 128.995 175.156C129.144 175.527 129.428 175.902 129.847 176.28C130.273 176.665 130.703 176.935 131.137 177.09C131.57 177.242 131.985 177.289 132.382 177.232C132.778 177.173 133.137 177.019 133.459 176.771C133.637 176.633 133.781 176.485 133.893 176.327C134.004 176.165 134.078 175.997 134.115 175.822C134.154 175.647 134.152 175.469 134.11 175.288C134.071 175.106 133.985 174.929 133.855 174.756L134.946 173.924C135.171 174.194 135.331 174.487 135.428 174.801C135.526 175.114 135.556 175.434 135.517 175.762C135.477 176.088 135.361 176.408 135.17 176.722C134.978 177.034 134.705 177.327 134.35 177.6C133.828 178.004 133.248 178.261 132.611 178.373C131.974 178.484 131.323 178.438 130.659 178.233C129.994 178.029 129.363 177.656 128.764 177.116C128.164 176.573 127.769 176.018 127.581 175.449C127.391 174.879 127.387 174.333 127.571 173.811C127.755 173.29 128.106 172.829 128.624 172.429C128.955 172.174 129.307 171.976 129.678 171.835C130.05 171.694 130.431 171.614 130.823 171.595C131.212 171.574 131.6 171.618 131.987 171.727C132.373 171.833 132.744 172.009 133.098 172.255Z"
        fill="black" />
    <path d="M134.366 167.349L140.587 171.555L139.64 172.531L133.419 168.326L134.366 167.349Z" fill="black" />
    <path
        d="M143.008 168.626L136.305 165.242L137.959 162.961C138.297 162.494 138.677 162.151 139.099 161.931C139.522 161.709 139.96 161.602 140.414 161.609C140.867 161.613 141.306 161.723 141.732 161.938C142.161 162.155 142.484 162.43 142.698 162.762C142.913 163.095 143 163.471 142.96 163.888C142.917 164.305 142.726 164.748 142.385 165.217L141.29 166.729L140.292 166.225L141.28 164.861C141.478 164.588 141.587 164.338 141.609 164.111C141.631 163.884 141.58 163.682 141.457 163.507C141.335 163.329 141.156 163.18 140.918 163.06C140.68 162.94 140.44 162.877 140.197 162.871C139.956 162.862 139.721 162.921 139.493 163.046C139.264 163.169 139.05 163.368 138.85 163.643L138.118 164.653L143.806 167.525L143.008 168.626Z"
        fill="black" />
    <path
        d="M147.966 160.823L140.839 158.462L141.424 157.233L147.468 159.236L148.889 156.247L149.971 156.606L147.966 160.823Z"
        fill="black" />
    <path d="M143.993 150.641L151.332 152.22L150.93 153.52L143.591 151.941L143.993 150.641Z" fill="black" />
    <path
        d="M145.523 142.091L152.999 142.769L152.843 143.97L147.293 147.018L147.285 147.08L152.378 147.542L152.202 148.892L144.726 148.214L144.883 147.006L150.436 143.961L150.444 143.895L145.349 143.433L145.523 142.091Z"
        fill="black" />
    <path
        d="M153.013 139.406L145.521 139.861L145.096 134.993L146.234 134.923L146.54 138.436L148.574 138.312L148.29 135.052L149.428 134.983L149.712 138.243L151.757 138.119L151.448 134.577L152.586 134.508L153.013 139.406Z"
        fill="black" />
</svg>